<?xml version="1.0" encoding="UTF-8"?>
<svg version="1.1" xmlns="http://www.w3.org/2000/svg" width="300" height="220">
<path d="M0 0 C99 0 198 0 300 0 C300 72.6 300 145.2 300 220 C201 220 102 220 0 220 C0 147.4 0 74.8 0 0 Z " fill="#010D11" transform="translate(0,0)"/>
<path d="M0 0 C10.23649457 7.2001188 15.9862113 15.49283125 20.66015625 26.87109375 C21.04300781 27.80050781 21.42585938 28.72992188 21.8203125 29.6875 C25.44124082 43.41334457 22.70702602 57.89479677 15.91015625 70.05859375 C8.1549449 82.16760796 -1.9509144 90.86452448 -16.12597656 94.45507812 C-31.61029097 97.36479049 -45.5979867 95.16888132 -58.71484375 86.49609375 C-70.19639148 77.85706511 -77.73045358 67.23739917 -80.33984375 52.87109375 C-81.37348256 42.16206331 -81.45604985 31.5758972 -76.33984375 21.87109375 C-75.92734375 21.03707031 -75.51484375 20.20304687 -75.08984375 19.34375 C-67.32227207 5.02228971 -54.7655735 -2.97541251 -39.546875 -7.68359375 C-26.00959881 -10.41500877 -11.72752751 -6.92597722 0 0 Z " fill="#030E12" transform="translate(189.33984375,97.12890625)"/>
<path d="M0 0 C0.93744553 -0.0030011 1.87489105 -0.0060022 2.84074402 -0.00909424 C3.84502945 0.00325256 4.84931488 0.01559937 5.8840332 0.02832031 C7.43680717 0.03113007 7.43680717 0.03113007 9.02095032 0.03399658 C11.20556873 0.04071268 13.3901752 0.05461837 15.57470703 0.07519531 C18.93248568 0.10642365 22.28979544 0.11617364 25.64770508 0.12207031 C27.76815356 0.13123722 29.88859723 0.141612 32.0090332 0.15332031 C33.52457039 0.15969513 33.52457039 0.15969513 35.07072449 0.16619873 C35.99871353 0.17580627 36.92670258 0.18541382 37.8828125 0.1953125 C38.70347702 0.2021405 39.52414154 0.20896851 40.36967468 0.21600342 C42.24731445 0.35644531 42.24731445 0.35644531 43.24731445 1.35644531 C43.37231445 4.85644531 43.37231445 4.85644531 43.24731445 8.35644531 C42.24731445 9.35644531 42.24731445 9.35644531 40.45664978 9.47669983 C39.67721512 9.47447922 38.89778046 9.47225861 38.09472656 9.4699707 C37.21388901 9.46989517 36.33305145 9.46981964 35.42552185 9.46974182 C34.46823685 9.46458054 33.51095184 9.45941925 32.5246582 9.45410156 C31.54944717 9.45268661 30.57423615 9.45127167 29.56947327 9.44981384 C26.44122303 9.44419664 23.31304322 9.43164124 20.18481445 9.41894531 C18.06958111 9.41393253 15.95434665 9.40936924 13.83911133 9.40527344 C8.64182149 9.39422163 3.444573 9.37746677 -1.75268555 9.35644531 C-1.88464325 9.96294418 -2.01660095 10.56944305 -2.15255737 11.19432068 C-2.32852448 11.99604202 -2.50449158 12.79776337 -2.68579102 13.6237793 C-2.85899872 14.41590317 -3.03220642 15.20802704 -3.21066284 16.02415466 C-4.4183954 21.22095421 -6.14719485 26.27239142 -7.75268555 31.35644531 C-13.69268555 31.35644531 -19.63268555 31.35644531 -25.75268555 31.35644531 C-25.75268555 28.05644531 -25.75268555 24.75644531 -25.75268555 21.35644531 C-32.35268555 21.35644531 -38.95268555 21.35644531 -45.75268555 21.35644531 C-45.75268555 24.65644531 -45.75268555 27.95644531 -45.75268555 31.35644531 C-47.7790918 31.37771484 -47.7790918 31.37771484 -49.84643555 31.39941406 C-51.64855179 31.44634417 -53.45063406 31.49459137 -55.25268555 31.54394531 C-56.13956055 31.54974609 -57.02643555 31.55554688 -57.94018555 31.56152344 C-64.40523533 31.77544053 -68.71882861 33.24722082 -73.75268555 37.35644531 C-78.44581263 42.41058217 -78.90551152 46.41168803 -78.9296875 53.08154297 C-78.9395443 54.26020432 -78.9395443 54.26020432 -78.94960022 55.462677 C-78.96932178 58.06528828 -78.98099551 60.66784177 -78.9909668 63.27050781 C-78.99504232 64.16119335 -78.99911785 65.05187889 -79.00331688 65.9695549 C-79.02417639 70.68722043 -79.03847657 75.40485692 -79.04785156 80.12255859 C-79.05889379 84.98134087 -79.09326863 89.83966238 -79.13302326 94.69828224 C-79.15925051 98.44567683 -79.16754898 102.19296285 -79.17113304 105.94044113 C-79.17598609 107.73049392 -79.1875633 109.52054227 -79.20617104 111.31050491 C-79.69293771 125.5987502 -79.69293771 125.5987502 -73.3405304 137.91592407 C-68.96649581 141.86749776 -64.60504582 143.6230537 -58.76977539 143.54833984 C-57.80462006 143.542388 -56.83946472 143.53643616 -55.84506226 143.53030396 C-54.81168732 143.51675873 -53.77831238 143.5032135 -52.71362305 143.48925781 C-50.50138208 143.49006484 -48.28914115 143.49272847 -46.0769043 143.49707031 C-42.60733348 143.49511149 -39.13944896 143.48160147 -35.67016602 143.43554688 C-12.328639 143.16239071 -12.328639 143.16239071 -4.4621582 150.44189453 C-3.89803223 151.07369629 -3.33390625 151.70549805 -2.75268555 152.35644531 C-2.09268555 153.01644531 -1.43268555 153.67644531 -0.75268555 154.35644531 C-8.75952358 154.47301741 -16.76599881 154.56149954 -24.77347946 154.61550617 C-28.49293034 154.64144526 -32.21179474 154.67654889 -35.9309082 154.73364258 C-39.52956027 154.78853242 -43.12765336 154.81798334 -46.7266922 154.83083153 C-48.74724287 154.84437586 -50.76757302 154.88331549 -52.78778076 154.92292786 C-63.38770287 154.92610392 -72.2885434 152.85556421 -80.25268555 145.54394531 C-87.28538237 137.78171562 -90.04231355 128.73091899 -90.07495117 118.31665039 C-90.08488098 117.5448645 -90.09481079 116.77307861 -90.1050415 115.97790527 C-90.13406696 113.44389169 -90.14785264 110.91012855 -90.15893555 108.37597656 C-90.1645903 107.50373632 -90.17024506 106.63149609 -90.17607117 105.73282433 C-90.20597043 101.11540916 -90.2244817 96.49811755 -90.2331543 91.88061523 C-90.24410222 87.14077212 -90.29213318 82.4020843 -90.34909821 77.66260242 C-90.38657615 73.9914177 -90.396774 70.32050489 -90.39982605 66.64914513 C-90.40583126 64.90340559 -90.42172459 63.15766806 -90.44819641 61.41211891 C-90.61361391 49.66473577 -89.83852758 40.00508477 -81.47912598 30.87263489 C-74.92273414 24.57453945 -69.43791966 22.21474217 -60.31518555 22.16894531 C-58.12731737 22.21685483 -55.93954539 22.27455181 -53.75268555 22.35644531 C-53.83518555 21.26332031 -53.91768555 20.17019531 -54.00268555 19.04394531 C-53.75268555 15.35644531 -53.75268555 15.35644531 -52.15136719 13.65087891 C-49.00339855 11.95209726 -46.69407053 11.96829049 -43.1237793 11.95800781 C-41.84180664 11.95414063 -40.55983398 11.95027344 -39.23901367 11.94628906 C-38.24236694 11.95571533 -38.24236694 11.95571533 -37.22558594 11.96533203 C-35.19292332 11.98142364 -33.16224054 11.96545296 -31.12963867 11.94628906 C-29.84895508 11.95015625 -28.56827148 11.95402344 -27.2487793 11.95800781 C-26.07500732 11.9613916 -24.90123535 11.96477539 -23.69189453 11.96826172 C-20.75268555 12.35644531 -20.75268555 12.35644531 -18.85839844 13.65087891 C-17.06394372 16.41883224 -17.57176688 19.16021553 -17.75268555 22.35644531 C-16.43268555 22.35644531 -15.11268555 22.35644531 -13.75268555 22.35644531 C-13.67018555 21.26332031 -13.58768555 20.17019531 -13.50268555 19.04394531 C-12.76805313 13.24966146 -11.41268421 5.79075057 -6.9728241 1.7276001 C-4.39493379 0.13549827 -3.00507969 -0.01331072 0 0 Z " fill="#F5F5F5" transform="translate(125.752685546875,47.6435546875)"/>
<path d="M0 0 C10.23649457 7.2001188 15.9862113 15.49283125 20.66015625 26.87109375 C21.04300781 27.80050781 21.42585938 28.72992188 21.8203125 29.6875 C25.44124082 43.41334457 22.70702602 57.89479677 15.91015625 70.05859375 C8.1549449 82.16760796 -1.9509144 90.86452448 -16.12597656 94.45507812 C-31.61029097 97.36479049 -45.5979867 95.16888132 -58.71484375 86.49609375 C-70.19639148 77.85706511 -77.73045358 67.23739917 -80.33984375 52.87109375 C-81.37348256 42.16206331 -81.45604985 31.5758972 -76.33984375 21.87109375 C-75.92734375 21.03707031 -75.51484375 20.20304687 -75.08984375 19.34375 C-67.32227207 5.02228971 -54.7655735 -2.97541251 -39.546875 -7.68359375 C-26.00959881 -10.41500877 -11.72752751 -6.92597722 0 0 Z M-61.47265625 16.40234375 C-69.5778825 27.66148649 -71.74497932 38.18414687 -70.33984375 51.87109375 C-67.10694721 65.5565392 -58.9365708 74.91936211 -47.2109375 82.19140625 C-37.48960907 87.02671048 -23.9154928 86.3295552 -13.71484375 83.30859375 C-3.14707594 79.11690931 4.75148865 71.34356491 9.47265625 61.12109375 C13.71267278 51.29633053 14.90273385 38.50679445 11.09765625 28.24609375 C5.5189433 16.99079569 -3.46400839 8.0539101 -15.33984375 3.87109375 C-15.97535156 3.64550781 -16.61085937 3.41992188 -17.265625 3.1875 C-33.18640382 -1.59202987 -50.8071333 3.74436047 -61.47265625 16.40234375 Z " fill="#F7F7F7" transform="translate(189.33984375,97.12890625)"/>
<path d="M0 0 C0 2.31 0 4.62 0 7 C-1.48886719 7.31130859 -1.48886719 7.31130859 -3.0078125 7.62890625 C-17.56702011 10.85285966 -29.42424599 16.09130559 -40 27 C-40.57234375 27.56332031 -41.1446875 28.12664062 -41.734375 28.70703125 C-53.07105244 40.71572823 -54.64886076 55.08347424 -54.375 70.76171875 C-53.73326947 86.11512159 -45.42948467 99.25631946 -36 111 C-44.4004871 109.36450694 -51.1838828 101.65698844 -56 95 C-64.48816913 80.18326229 -66.22381361 64.43478304 -61.90014648 47.95141602 C-58.23455346 35.29164253 -51.18503474 26.10241074 -42 17 C-41.43925781 16.40574219 -40.87851563 15.81148437 -40.30078125 15.19921875 C-30.27006701 5.43177785 -13.75786935 -0.66570336 0 0 Z " fill="#30A3E9" transform="translate(157,75)"/>
<path d="M0 0 C0.33 0 0.66 0 1 0 C1.14688806 4.12461681 1.23460044 8.24854924 1.3125 12.375 C1.35439453 13.53128906 1.39628906 14.68757812 1.43945312 15.87890625 C1.57776494 25.67138256 -0.74304356 32.47997346 -7.1875 39.875 C-13.85466133 45.96616467 -21.11634849 47.4830225 -29.9453125 47.140625 C-30.62335938 47.09421875 -31.30140625 47.0478125 -32 47 C-29.42810901 44.32407746 -26.83137109 42.08755209 -23.8125 39.9375 C-10.59302712 29.71849958 -4.31430544 15.73452573 0 0 Z " fill="#F2F4F4" transform="translate(230,155)"/>
<path d="M0 0 C0.625 2.3125 0.625 2.3125 1 5 C-1.10772742 8.16159113 -1.39544858 8.39082795 -4.75 9.4375 C-12.03814413 11.98570981 -16.92943631 15.77533402 -20.35546875 22.765625 C-21.60544 25.49665462 -22.81982098 28.23818762 -24 31 C-25.65 30.67 -27.3 30.34 -29 30 C-29 29.01 -29 28.02 -29 27 C-29.66 27 -30.32 27 -31 27 C-31.87539822 21.45581124 -29.72931438 17.98150014 -26.8359375 13.46484375 C-19.9997106 4.28684551 -11.50088344 -0.95840695 0 0 Z " fill="#F4F5F5" transform="translate(158,106)"/>
<path d="M0 0 C0.87205078 -0.020625 1.74410156 -0.04125 2.64257812 -0.0625 C3.48111328 -0.06765625 4.31964844 -0.0728125 5.18359375 -0.078125 C6.33492798 -0.09214355 6.33492798 -0.09214355 7.50952148 -0.10644531 C10.10716158 0.34456605 10.97892535 1.17733929 12.5625 3.25 C12.9375 5.75 12.9375 5.75 12.5625 8.25 C10.98609654 10.30412011 10.09465192 11.14859521 7.52539062 11.63818359 C6.76419922 11.64156738 6.00300781 11.64495117 5.21875 11.6484375 C4.38472656 11.65230469 3.55070312 11.65617187 2.69140625 11.66015625 C1.39009766 11.64275391 1.39009766 11.64275391 0.0625 11.625 C-0.80503906 11.63660156 -1.67257813 11.64820312 -2.56640625 11.66015625 C-3.40042969 11.65628906 -4.23445313 11.65242188 -5.09375 11.6484375 C-6.23553711 11.64336182 -6.23553711 11.64336182 -7.40039062 11.63818359 C-9.99652265 11.14347483 -10.90893488 10.38766029 -12.4375 8.25 C-12.25 4.625 -12.25 4.625 -11.4375 1.25 C-7.91191767 -0.51279117 -3.88354409 0.02286119 0 0 Z " fill="#F0F1F1" transform="translate(71.4375,94.75)"/>
<path d="M0 0 C2.64242277 2.64242277 2.29852198 3.94412053 2.3125 7.625 C2.13323271 15.53163113 0.77969124 20.39312343 -4.625 26.25 C-12.39298248 33.38586818 -19.35371355 34.44408388 -29.64453125 34.43359375 C-33.10256785 33.98674618 -34.50998574 33.36457274 -37 31 C-36.17757812 30.97421875 -35.35515625 30.9484375 -34.5078125 30.921875 C-24.42360709 30.40951352 -14.42707271 28.38917948 -7 21 C-2.09545771 14.66061821 -0.88646203 7.81938896 0 0 Z " fill="#319EE5" transform="translate(187,138)"/>
<path d="M0 0 C6.6752034 -0.02526945 13.35039457 -0.04283268 20.02563477 -0.05493164 C22.29842591 -0.05997325 24.5712138 -0.06680637 26.84399414 -0.07543945 C30.10303551 -0.08751261 33.36203417 -0.09322987 36.62109375 -0.09765625 C37.64400009 -0.10281754 38.66690643 -0.10797882 39.72080994 -0.11329651 C40.66170975 -0.11337204 41.60260956 -0.11344757 42.57202148 -0.11352539 C43.40475082 -0.115746 44.23748016 -0.11796661 45.09544373 -0.12025452 C47 0 47 0 48 1 C48.125 4.5 48.125 4.5 48 8 C47 9 47 9 45.14233398 9.11352539 C43.95619507 9.10567017 43.95619507 9.10567017 42.74609375 9.09765625 C41.89208984 9.09443359 41.03808594 9.09121094 40.15820312 9.08789062 C39.26037109 9.07951172 38.36253906 9.07113281 37.4375 9.0625 C36.53580078 9.05798828 35.63410156 9.05347656 34.70507812 9.04882812 C32.46998686 9.03700225 30.23502563 9.0205222 28 9 C28.495 8.21625 28.99 7.4325 29.5 6.625 C31.16537965 4.21447673 31.16537965 4.21447673 31 2 C20.77 1.67 10.54 1.34 0 1 C0 0.67 0 0.34 0 0 Z " fill="#CDCFD0" transform="translate(121,48)"/>
<path d="M0 0 C2 2 2 2 2.3125 4.9375 C2 8 2 8 0.875 9.875 C-1.88090884 11.52854531 -3.85075452 11.39365568 -7 11 C-8.875 9.875 -8.875 9.875 -10 8 C-10.39310741 4.85514075 -10.47555213 2.86718329 -8.9375 0.0625 C-5.81651045 -1.6490104 -3.35466116 -0.79291991 0 0 Z " fill="#F6F6F6" transform="translate(160,119)"/>
<path d="M0 0 C7.09629025 -0.31461385 12.68284595 -0.44572039 19 3 C16.25 8.875 16.25 8.875 14 10 C12.28766312 9.9129796 10.57824594 9.75902838 8.875 9.5625 C7.50988281 9.40974609 7.50988281 9.40974609 6.1171875 9.25390625 C5.41851562 9.17011719 4.71984375 9.08632812 4 9 C4.33 6.69 4.66 4.38 5 2 C3.35 1.67 1.7 1.34 0 1 C0 0.67 0 0.34 0 0 Z " fill="#44474C" transform="translate(153,105)"/>
<path d="M0 0 C1.76207974 2.64311962 3.17337441 5.24440004 4.625 8.0625 C7.78764445 13.93374588 11.67757665 18.94254527 16 24 C15.01 24.33 14.02 24.66 13 25 C7.62001476 21.94939243 2.81799443 18.02210654 1 12 C0.49222604 8.00448569 0.18875566 4.02244824 0 0 Z " fill="#1F80C0" transform="translate(105,161)"/>
<path d="M0 0 C2.14576637 -0.02685938 4.29162645 -0.04633088 6.4375 -0.0625 C7.63246094 -0.07410156 8.82742187 -0.08570313 10.05859375 -0.09765625 C13 0 13 0 14 1 C14.125 4.5 14.125 4.5 14 8 C13 9 13 9 10.27734375 9.09765625 C8.62412109 9.08025391 8.62412109 9.08025391 6.9375 9.0625 C5.28041016 9.04896484 5.28041016 9.04896484 3.58984375 9.03515625 C2.73519531 9.02355469 1.88054687 9.01195312 1 9 C2.32 8.67 3.64 8.34 5 8 C4.814375 7.38125 4.62875 6.7625 4.4375 6.125 C4 4 4 4 5 2 C3.35 1.67 1.7 1.34 0 1 C0 0.67 0 0.34 0 0 Z " fill="#646667" transform="translate(155,48)"/>
<path d="M0 0 C2.875 -0.125 2.875 -0.125 6 0 C6.66 0.66 7.32 1.32 8 2 C8.66 1.67 9.32 1.34 10 1 C10.99 3.64 11.98 6.28 13 9 C8.71 9 4.42 9 0 9 C0 6.03 0 3.06 0 0 Z " fill="#333739" transform="translate(168,48)"/>
<path d="M0 0 C2.97 0 5.94 0 9 0 C9 2.97 9 5.94 9 9 C6.03 9 3.06 9 0 9 C0 6.03 0 3.06 0 0 Z " fill="#DBDCDD" transform="translate(190,65)"/>
<path d="M0 0 C2.97 0 5.94 0 9 0 C9 2.97 9 5.94 9 9 C6.03 9 3.06 9 0 9 C0 6.03 0 3.06 0 0 Z " fill="#DBDCDC" transform="translate(193,42)"/>
<path d="M0 0 C2.05078125 0.03255208 4.1015625 0.06510417 6.15234375 0.09765625 C6.15234375 3.06765625 6.15234375 6.03765625 6.15234375 9.09765625 C3.18234375 9.09765625 0.21234375 9.09765625 -2.84765625 9.09765625 C-2.9453125 2.9453125 -2.9453125 2.9453125 -2.84765625 1.09765625 C-1.84765625 0.09765625 -1.84765625 0.09765625 0 0 Z " fill="#2E8ECF" transform="translate(237.84765625,41.90234375)"/>
<path d="M0 0 C0.33 1.32 0.66 2.64 1 4 C1.66 4 2.32 4 3 4 C3.33 4.99 3.66 5.98 4 7 C5.65 7 7.3 7 9 7 C9.125 9.875 9.125 9.875 9 13 C8.34 13.66 7.68 14.32 7 15 C4.0371669 14.60495559 1.61673759 13.40182371 -1 12 C-1.08159574 7.83861737 -0.98248524 4.0527516 0 0 Z " fill="#3D4446" transform="translate(126,129)"/>
<path d="M0 0 C2.64 0 5.28 0 8 0 C8 2.97 8 5.94 8 9 C5.36 9 2.72 9 0 9 C0 6.03 0 3.06 0 0 Z " fill="#EDEDEE" transform="translate(204,84)"/>
<path d="M0 0 C2.97 0 5.94 0 9 0 C9 2.64 9 5.28 9 8 C6.03 8 3.06 8 0 8 C0 5.36 0 2.72 0 0 Z " fill="#EAEAEB" transform="translate(206,69)"/>
<path d="M0 0 C0.79921875 0.00902344 1.5984375 0.01804687 2.421875 0.02734375 C3.02515625 0.03894531 3.6284375 0.05054687 4.25 0.0625 C4.25 2.3725 4.25 4.6825 4.25 7.0625 C1.54120665 8.41689668 -0.75933268 8.12751451 -3.75 8.0625 C-4.08 6.0825 -4.41 4.1025 -4.75 2.0625 C-6.07 1.7325 -7.39 1.4025 -8.75 1.0625 C-5.75519083 0.1901588 -3.11424089 -0.04579766 0 0 Z " fill="#2387C6" transform="translate(152.75,74.9375)"/>
<path d="M0 0 C2.64 0 5.28 0 8 0 C8 2.64 8 5.28 8 8 C5.36 8 2.72 8 0 8 C0 5.36 0 2.72 0 0 Z " fill="#2DA1E1" transform="translate(245,118)"/>
<path d="M0 0 C2.64 0 5.28 0 8 0 C8 2.64 8 5.28 8 8 C5.36 8 2.72 8 0 8 C0 5.36 0 2.72 0 0 Z " fill="#FAFAFA" transform="translate(217,98)"/>
<path d="M0 0 C2.64 0 5.28 0 8 0 C8 2.64 8 5.28 8 8 C5.36 8 2.72 8 0 8 C0 5.36 0 2.72 0 0 Z " fill="#34A6EC" transform="translate(234,98)"/>
<path d="M0 0 C2.64 0 5.28 0 8 0 C8 2.64 8 5.28 8 8 C5.36 8 2.72 8 0 8 C0 5.36 0 2.72 0 0 Z " fill="#2EA5F0" transform="translate(248,85)"/>
<path d="M0 0 C2.64 0 5.28 0 8 0 C8 2.64 8 5.28 8 8 C5.36 8 2.72 8 0 8 C0 5.36 0 2.72 0 0 Z " fill="#F3F4F4" transform="translate(230,82)"/>
<path d="M0 0 C2.64 0 5.28 0 8 0 C8 2.64 8 5.28 8 8 C5.36 8 2.72 8 0 8 C0 5.36 0 2.72 0 0 Z " fill="#F2F3F3" transform="translate(244,65)"/>
<path d="M0 0 C2.64 0 5.28 0 8 0 C8 2.64 8 5.28 8 8 C5.36 8 2.72 8 0 8 C0 5.36 0 2.72 0 0 Z " fill="#F9F9F9" transform="translate(225,54)"/>
<path d="M0 0 C2.64 0 5.28 0 8 0 C8 2.64 8 5.28 8 8 C5.36 8 2.72 8 0 8 C0 5.36 0 2.72 0 0 Z " fill="#2DA2E8" transform="translate(209,41)"/>
<path d="M0 0 C2.64 0 5.28 0 8 0 C8 2.31 8 4.62 8 7 C5.36 7 2.72 7 0 7 C0 4.69 0 2.38 0 0 Z " fill="#F7F8F8" transform="translate(229,132)"/>
<path d="M0 0 C2.64 0 5.28 0 8 0 C8 2.31 8 4.62 8 7 C5.36 7 2.72 7 0 7 C0 4.69 0 2.38 0 0 Z " fill="#F9F9F9" transform="translate(229,115)"/>
<path d="M0 0 C2.64 0 5.28 0 8 0 C8 2.31 8 4.62 8 7 C5.36 7 2.72 7 0 7 C0 4.69 0 2.38 0 0 Z " fill="#2AA7EE" transform="translate(174,61)"/>
<path d="M0 0 C2.64 0 5.28 0 8 0 C8 2.31 8 4.62 8 7 C5.36 7 2.72 7 0 7 C0 4.69 0 2.38 0 0 Z " fill="#CACCCC" transform="translate(224,30)"/>
<path d="M0 0 C2.31 0 4.62 0 7 0 C7 2.31 7 4.62 7 7 C4.69 7 2.38 7 0 7 C0 4.69 0 2.38 0 0 Z " fill="#DBDCDC" transform="translate(240,165)"/>
<path d="M0 0 C2.31 0 4.62 0 7 0 C7 2.31 7 4.62 7 7 C4.69 7 2.38 7 0 7 C0 4.69 0 2.38 0 0 Z " fill="#E0E1E1" transform="translate(256,107)"/>
<path d="M0 0 C-2.41734542 0.08117951 -4.83194949 0.14056926 -7.25 0.1875 C-7.93191406 0.21263672 -8.61382812 0.23777344 -9.31640625 0.26367188 C-12.59199289 0.31137459 -14.65348556 0.21085076 -17.484375 -1.51171875 C-17.98453125 -2.00285156 -18.4846875 -2.49398437 -19 -3 C-16.87562788 -3.19448477 -14.75046809 -3.38038289 -12.625 -3.5625 C-11.44164062 -3.66691406 -10.25828125 -3.77132812 -9.0390625 -3.87890625 C-4.87310856 -4.04490184 -3.21633796 -2.4658591 0 0 Z " fill="#1B82C3" transform="translate(169,172)"/>
<path d="M0 0 C2.97 0 5.94 0 9 0 C10.125 4.75 10.125 4.75 9 7 C9.66 7.33 10.32 7.66 11 8 C8.69 8.33 6.38 8.66 4 9 C4.33 6.69 4.66 4.38 5 2 C3.35 1.67 1.7 1.34 0 1 C0 0.67 0 0.34 0 0 Z " fill="#A4A6A7" transform="translate(153,105)"/>
<path d="M0 0 C2.64 0 5.28 0 8 0 C8 1.32 8 2.64 8 4 C8.66 4.33 9.32 4.66 10 5 C6.67692308 8.93846154 6.67692308 8.93846154 3.25 9.25 C2.5075 9.1675 1.765 9.085 1 9 C2.32 8.67 3.64 8.34 5 8 C4.814375 7.38125 4.62875 6.7625 4.4375 6.125 C4 4 4 4 5 2 C3.35 1.67 1.7 1.34 0 1 C0 0.67 0 0.34 0 0 Z " fill="#999A9A" transform="translate(155,48)"/>
<path d="M0 0 C1.67542976 0.28604898 3.34385343 0.61781233 5 1 C5 2.65 5 4.3 5 6 C3.34385343 6.38218767 1.67542976 6.71395102 0 7 C-1 6 -1 6 -1.125 3.5 C-1 1 -1 1 0 0 Z " fill="#2F9FE1" transform="translate(163,75)"/>
<path d="M0 0 C3.63559661 3.43361902 6.36113346 6.7973607 9 11 C5.00544473 10.38545304 2.25533664 8.29353263 -1 6 C-0.67 4.02 -0.34 2.04 0 0 Z " fill="#0B5E89" transform="translate(112,175)"/>
<path d="M0 0 C2.125 0.375 2.125 0.375 4 1 C4.625 2.875 4.625 2.875 5 5 C4.34 5.66 3.68 6.32 3 7 C0.875 6.625 0.875 6.625 -1 6 C-1.625 4.125 -1.625 4.125 -2 2 C-1.34 1.34 -0.68 0.68 0 0 Z " fill="#329FE5" transform="translate(217,115)"/>
<path d="M0 0 C1.67542976 0.28604898 3.34385343 0.61781233 5 1 C5 2.65 5 4.3 5 6 C3.35 6.33 1.7 6.66 0 7 C-0.38133299 5.0085944 -0.71325582 3.00720923 -1 1 C-0.67 0.67 -0.34 0.34 0 0 Z " fill="#369FE2" transform="translate(175,77)"/>
<path d="M0 0 C1.98 0 3.96 0 6 0 C6 1.98 6 3.96 6 6 C4.02 6 2.04 6 0 6 C0 4.02 0 2.04 0 0 Z " fill="#FAFAFA" transform="translate(249,147)"/>
<path d="M0 0 C0.556875 0.495 1.11375 0.99 1.6875 1.5 C4.38162983 3.24754367 5.85375007 3.26218749 9 3 C7.35 4.98 5.7 6.96 4 9 C3.01 8.67 2.02 8.34 1 8 C1.33 7.67 1.66 7.34 2 7 C1.484375 6.5875 0.96875 6.175 0.4375 5.75 C-0.036875 5.1725 -0.51125 4.595 -1 4 C-0.6875 1.8125 -0.6875 1.8125 0 0 Z " fill="#232B2E" transform="translate(126,140)"/>
<path d="M0 0 C0.66 1.98 1.32 3.96 2 6 C-2.75 8 -2.75 8 -5 8 C-5.36625971 3.48279689 -5.36625971 3.48279689 -3.625 1.1875 C-2 0 -2 0 0 0 Z " fill="#182025" transform="translate(174,108)"/>
<path d="M0 0 C1.67542976 0.28604898 3.34385343 0.61781233 5 1 C4.67 2.65 4.34 4.3 4 6 C3.01 6.33 2.02 6.66 1 7 C0.34 6.67 -0.32 6.34 -1 6 C-1.042721 4.33388095 -1.04063832 2.66617115 -1 1 C-0.67 0.67 -0.34 0.34 0 0 Z " fill="#35A0E5" transform="translate(187,81)"/>
<path d="M0 0 C1.98 0 3.96 0 6 0 C5.67 2.31 5.34 4.62 5 7 C3.35 7.33 1.7 7.66 0 8 C-0.98120464 4.94736336 -0.98120464 3.05263664 0 0 Z " fill="#BCBCBC" transform="translate(155,49)"/>
<path d="M0 0 C0.33 1.32 0.66 2.64 1 4 C1.66 4 2.32 4 3 4 C3.33 4.99 3.66 5.98 4 7 C5.65 7 7.3 7 9 7 C8.67 8.32 8.34 9.64 8 11 C5.6875 11.25 5.6875 11.25 3 11 C1.1875 9.4375 1.1875 9.4375 0 7 C-0.1875 3.25 -0.1875 3.25 0 0 Z " fill="#7B7F83" transform="translate(126,129)"/>
<path d="M0 0 C0.99 1.485 0.99 1.485 2 3 C2.99 3.33 3.98 3.66 5 4 C6.6875 6.5625 6.6875 6.5625 8 9 C6.35 9.33 4.7 9.66 3 10 C2.67 8.68 2.34 7.36 2 6 C1.34 6 0.68 6 0 6 C0 4.02 0 2.04 0 0 Z " fill="#C1C2C8" transform="translate(127,127)"/>
<path d="M0 0 C1.32 0.33 2.64 0.66 4 1 C4 1.99 4 2.98 4 4 C4.66 4.33 5.32 4.66 6 5 C5.67 6.32 5.34 7.64 5 9 C3.35 9 1.7 9 0 9 C0 6.03 0 3.06 0 0 Z " fill="#4E5051" transform="translate(168,48)"/>
<path d="M0 0 C0.99 0.33 1.98 0.66 3 1 C2.67 2.98 2.34 4.96 2 7 C-0.64 7.33 -3.28 7.66 -6 8 C-5.34 7.67 -4.68 7.34 -4 7 C-3.67 6.01 -3.34 5.02 -3 4 C-2 3 -2 3 0 2 C0 1.34 0 0.68 0 0 Z " fill="#E8E8E8" transform="translate(150,49)"/>
<path d="M0 0 C3.375 -0.125 3.375 -0.125 7 0 C7.66 0.66 8.32 1.32 9 2 C9.66 2.33 10.32 2.66 11 3 C10.67 4.32 10.34 5.64 10 7 C9.34 6.67 8.68 6.34 8 6 C7.38125 5.731875 6.7625 5.46375 6.125 5.1875 C3.63574756 3.79644717 1.93749993 2.07589278 0 0 Z " fill="#131C1F" transform="translate(174,48)"/>
<path d="M0 0 C1.65 0 3.3 0 5 0 C5 1.98 5 3.96 5 6 C3.35 6 1.7 6 0 6 C0 4.02 0 2.04 0 0 Z " fill="#E8E9E8" transform="translate(213,21)"/>
<path d="M0 0 C0.33 0 0.66 0 1 0 C1.13277344 0.96421875 1.26554687 1.9284375 1.40234375 2.921875 C1.57894531 4.18515625 1.75554687 5.4484375 1.9375 6.75 C2.19853516 8.62945312 2.19853516 8.62945312 2.46484375 10.546875 C2.86049338 13.09982593 3.30446422 15.5186291 4 18 C2.35 16.35 0.7 14.7 -1 13 C-0.34 11.68 0.32 10.36 1 9 C0.34 8.67 -0.32 8.34 -1 8 C-0.67 5.36 -0.34 2.72 0 0 Z " fill="#2B94D7" transform="translate(104,159)"/>
<path d="M0 0 C2.97 0.495 2.97 0.495 6 1 C5.67 1.66 5.34 2.32 5 3 C4.34 2.67 3.68 2.34 3 2 C3.66 3.98 4.32 5.96 5 8 C3.35 8.33 1.7 8.66 0 9 C0 6.03 0 3.06 0 0 Z " fill="#636668" transform="translate(162,105)"/>
<path d="M0 0 C2.97 0 5.94 0 9 0 C9 2.31 9 4.62 9 7 C7.68 7.33 6.36 7.66 5 8 C5.33 5.69 5.66 3.38 6 1 C4.02 1 2.04 1 0 1 C0 0.67 0 0.34 0 0 Z " fill="#0D4C72" transform="translate(148,75)"/>
<path d="M0 0 C0.99 0 1.98 0 3 0 C3 0.66 3 1.32 3 2 C3.66 2.33 4.32 2.66 5 3 C4.01 3.495 4.01 3.495 3 4 C3 5.32 3 6.64 3 8 C1.02 8 -0.96 8 -3 8 C-2.505 7.236875 -2.01 6.47375 -1.5 5.6875 C0.24368308 3.07636249 0.24368308 3.07636249 0 0 Z " fill="#D4D5D4" transform="translate(152,49)"/>
<path d="M0 0 C1.65 0 3.3 0 5 0 C5 1.65 5 3.3 5 5 C3.35 5 1.7 5 0 5 C0 3.35 0 1.7 0 0 Z " fill="#A2A5A7" transform="translate(206,56)"/>
<path d="M0 0 C1.65 0 3.3 0 5 0 C5 1.65 5 3.3 5 5 C3.35 5 1.7 5 0 5 C0 3.35 0 1.7 0 0 Z " fill="#D4D6D6" transform="translate(177,39)"/>
<path d="M0 0 C3.48435804 4.59301742 5.26283775 7.08615072 5 13 C2.31342365 10.31342365 1.34023957 7.53335886 0 4 C0 2.68 0 1.36 0 0 Z " fill="#106BA3" transform="translate(107,166)"/>
<path d="M0 0 C1.65 0 3.3 0 5 0 C4.67 1.65 4.34 3.3 4 5 C2.68 4.67 1.36 4.34 0 4 C0 2.68 0 1.36 0 0 Z " fill="#E3E5E5" transform="translate(57,172)"/>
<path d="M0 0 C1.98 0.495 1.98 0.495 4 1 C4 2.32 4 3.64 4 5 C2.35 5 0.7 5 -1 5 C-0.67 3.35 -0.34 1.7 0 0 Z " fill="#DDDEDF" transform="translate(58,161)"/>
<path d="M0 0 C1.98 0.495 1.98 0.495 4 1 C4 2.32 4 3.64 4 5 C2.35 5 0.7 5 -1 5 C-0.67 3.35 -0.34 1.7 0 0 Z " fill="#E5E6E7" transform="translate(58,151)"/>
<path d="M0 0 C1.65 0 3.3 0 5 0 C4.67 1.65 4.34 3.3 4 5 C2.68 4.67 1.36 4.34 0 4 C0 2.68 0 1.36 0 0 Z " fill="#E6E7E7" transform="translate(57,121)"/>
<path d="M0 0 C1.32 0 2.64 0 4 0 C3.47731534 2.76276177 2.89130413 5.3260876 2 8 C0.68 7.67 -0.64 7.34 -2 7 C-1.2265625 6.38125 -1.2265625 6.38125 -0.4375 5.75 C0.2740625 4.88375 0.2740625 4.88375 1 4 C0.77242269 1.83700789 0.77242269 1.83700789 0 0 Z " fill="#7C7D7D" transform="translate(163,49)"/>
<path d="M0 0 C1.98 0.495 1.98 0.495 4 1 C4 2.32 4 3.64 4 5 C2.35 4.67 0.7 4.34 -1 4 C-0.67 2.68 -0.34 1.36 0 0 Z " fill="#EEF0F1" transform="translate(58,141)"/>
<path d="M0 0 C0.66 0.66 1.32 1.32 2 2 C1.625 4.625 1.625 4.625 1 7 C0.01 7.33 -0.98 7.66 -2 8 C-2.6875 5.6875 -2.6875 5.6875 -3 3 C-1.5625 1.1875 -1.5625 1.1875 0 0 Z " fill="#CDCDCE" transform="translate(157,106)"/>
<path d="M0 0 C1.98 0.495 1.98 0.495 4 1 C3.67 2.32 3.34 3.64 3 5 C1.68 4.67 0.36 4.34 -1 4 C-0.67 2.68 -0.34 1.36 0 0 Z " fill="#F2F3F3" transform="translate(58,131)"/>
<path d="M0 0 C1.33333333 2.66666667 2.66666667 5.33333333 4 8 C2.35 7.67 0.7 7.34 -1 7 C-2 4 -2 4 -1.0625 1.8125 C-0.5365625 0.9153125 -0.5365625 0.9153125 0 0 Z " fill="#252B2D" transform="translate(177,49)"/>
<path d="M0 0 C0.99 0 1.98 0 3 0 C3 1.98 3 3.96 3 6 C2.01 6.33 1.02 6.66 0 7 C0 4.69 0 2.38 0 0 Z " fill="#1A70A7" transform="translate(151,76)"/>
<path d="M0 0 C1.65 0 3.3 0 5 0 C5 1.32 5 2.64 5 4 C3.35 4 1.7 4 0 4 C0 2.68 0 1.36 0 0 Z " fill="#DBDDDD" transform="translate(260,74)"/>
<path d="M0 0 C1.32 0 2.64 0 4 0 C4 1.65 4 3.3 4 5 C2.68 5 1.36 5 0 5 C0 3.35 0 1.7 0 0 Z " fill="#28A1E5" transform="translate(229,70)"/>
<path d="M0 0 C1.65 0 3.3 0 5 0 C5 1.32 5 2.64 5 4 C3.35 4 1.7 4 0 4 C0 2.68 0 1.36 0 0 Z " fill="#DFE1E1" transform="translate(158,38)"/>
<path d="M0 0 C1.65 0 3.3 0 5 0 C5 1.32 5 2.64 5 4 C3.35 4 1.7 4 0 4 C0 2.68 0 1.36 0 0 Z " fill="#E8E9E9" transform="translate(238,24)"/>
<path d="M0 0 C2.97 0 5.94 0 9 0 C8.67 0.99 8.34 1.98 8 3 C2.25 2.25 2.25 2.25 0 0 Z " fill="#095A88" transform="translate(150,169)"/>
<path d="M0 0 C1.32 0 2.64 0 4 0 C3.34 1.98 2.68 3.96 2 6 C1.67 5.34 1.34 4.68 1 4 C0.01 4 -0.98 4 -2 4 C-1.34 2.68 -0.68 1.36 0 0 Z " fill="#F3F2F2" transform="translate(146,49)"/>
<path d="M0 0 C0.66 0 1.32 0 2 0 C1.67 1.65 1.34 3.3 1 5 C1.66 5.33 2.32 5.66 3 6 C1.35 6.33 -0.3 6.66 -2 7 C-1.34 4.69 -0.68 2.38 0 0 Z " fill="#888A8C" transform="translate(161,107)"/>
<path d="M0 0 C4.875 4.75 4.875 4.75 6 7 C3.13275314 6.42655063 2.1385485 6.1385485 0 4 C0 2.68 0 1.36 0 0 Z " fill="#064A6C" transform="translate(115,179)"/>
<path d="M0 0 C0.99 0 1.98 0 3 0 C2.67 1.32 2.34 2.64 2 4 C0.35 4.33 -1.3 4.66 -3 5 C-1.6875 2.5 -1.6875 2.5 0 0 Z " fill="#4D5152" transform="translate(132,139)"/>
</svg>
